<?xml version="1.0" encoding="UTF-8"?>
<svg xmlns="http://www.w3.org/2000/svg" viewBox="0 0 200 200" role="img">
  <defs>
    <radialGradient id="bg" cx="50%" cy="50%" r="55%">
      <stop offset="0%" stop-color="hsl(79,45%,12%)"/>
      <stop offset="100%" stop-color="hsl(79,55%,4%)"/>
    </radialGradient>
    <filter id="glow"><feGaussianBlur stdDeviation="2"/></filter>
  </defs>
  <rect width="200" height="200" fill="url(#bg)"/>
  <g filter="url(#glow)" opacity="0.55"><circle cx="100" cy="100" r="30" fill="none" stroke="#118ab2" stroke-width="0.6" opacity="0.55"/><circle cx="100" cy="100" r="48" fill="none" stroke="#118ab2" stroke-width="0.6" opacity="0.45"/><circle cx="100" cy="100" r="66" fill="none" stroke="#118ab2" stroke-width="0.6" opacity="0.35"/></g>
  <polygon points="65.4,142.7 45.0,99.6 66.0,56.7 112.6,46.5 149.7,76.5 149.4,124.2 111.8,153.7" fill="none" stroke="#06d6a0" stroke-width="2.2" opacity="0.85"/>
  <polygon points="65.4,142.7 45.0,99.6 66.0,56.7 112.6,46.5 149.7,76.5 149.4,124.2 111.8,153.7" fill="#048967" opacity="0.18"/>
  <circle cx="100" cy="100" r="6" fill="#118ab2"/><circle cx="100" cy="100" r="14" fill="none" stroke="#118ab2" stroke-width="1.2" opacity="0.8"/>
  <g><circle cx="112.5" cy="158.7" r="2" fill="#118ab2" opacity="0.7"/><circle cx="57.8" cy="152.1" r="2" fill="#118ab2" opacity="0.7"/><circle cx="26.0" cy="100.0" r="2" fill="#118ab2" opacity="0.7"/><circle cx="49.0" cy="37.1" r="2" fill="#118ab2" opacity="0.7"/><circle cx="118.3" cy="13.9" r="2" fill="#118ab2" opacity="0.7"/><circle cx="157.9" cy="70.5" r="2" fill="#118ab2" opacity="0.7"/><circle cx="165.8" cy="129.3" r="2" fill="#118ab2" opacity="0.7"/></g>
</svg>
